# Blender 4.2.3 LTS
# www.blender.org
mtllib dragon_gold.mtl
o dragon_gold
v -0.401280 0.299890 0.000000
v -0.420234 0.780837 0.000000
v -0.282519 0.938127 0.000000
v -0.187743 0.868982 0.026083
v -0.284150 0.213469 0.091732
v -0.274673 0.780837 0.051551
v -0.284150 0.213469 -0.091732
v -0.274673 0.780837 -0.051551
v -0.187743 0.868982 -0.026083
v -0.382874 0.515915 0.000000
v -0.251528 0.472705 0.086678
v -0.279411 0.472705 -0.086678
v -0.283430 0.124922 0.000000
v 0.092898 0.374527 0.241886
v 0.283511 0.269027 0.214721
v -0.076825 0.298039 0.266074
v -0.168389 0.118688 0.296569
v 0.252516 0.001617 0.239762
v -0.085355 -0.007596 0.284735
v 0.076151 0.374527 0.097349
v 0.230941 0.269027 0.070184
v -0.061675 0.298039 0.121537
v 0.142081 0.094951 0.103224
v -0.136031 0.118688 0.152032
v 0.208624 0.008367 0.091764
v -0.068602 -0.007596 0.140198
v 0.164970 0.099896 0.268383
v 0.092898 0.374527 -0.241886
v 0.283511 0.269027 -0.214721
v -0.076825 0.298039 -0.266074
v -0.168389 0.118688 -0.296569
v 0.252516 0.001617 -0.239762
v -0.085355 -0.007596 -0.284735
v 0.076151 0.374527 -0.097349
v 0.230941 0.269027 -0.070184
v -0.061675 0.298039 -0.121537
v 0.142081 0.094951 -0.103224
v -0.136031 0.118688 -0.152032
v 0.208624 0.008367 -0.091764
v -0.068602 -0.007596 -0.140198
v 0.164970 0.099896 -0.268383
v -0.073895 0.890320 0.094005
v 0.264045 0.352706 0.071921
v -0.025040 -0.002254 0.167829
v -0.315434 0.381895 0.108684
v -0.249336 0.888753 0.105600
v -0.314740 0.413294 -0.114631
v -0.057442 0.360254 0.268090
v -0.281052 0.080996 -0.003370
v 0.336732 0.584157 0.079907
v -0.129095 0.919078 -0.109736
v 0.262354 0.352319 -0.079056
v -0.042756 0.009016 -0.182724
v -0.304439 0.822378 -0.100017
v -0.057450 0.360236 -0.274828
v 0.343629 0.580188 -0.086252
v 0.073015 0.711687 0.086956
v 0.048864 0.711719 -0.097994
v -0.145591 1.315373 0.132041
v -0.045365 1.241742 0.132041
v 0.031123 1.268118 0.132041
v 0.179800 1.181193 0.124277
v 0.031650 0.797145 0.132041
v -0.222079 0.898425 0.132041
v -0.340767 0.990738 0.132041
v -0.272192 1.204377 0.132041
v -0.045365 1.241742 -0.131282
v -0.145591 1.315373 -0.131282
v 0.194649 1.106789 0.132041
v 0.331799 1.106789 0.061924
v 0.358175 1.032939 0.061924
v 0.242526 0.924062 0.126588
v 0.089570 0.881528 0.129523
v 0.087829 0.824135 0.132041
v 0.031123 1.268118 -0.131282
v 0.127828 1.086167 0.167543
v 0.059622 1.078729 0.229478
v -0.028024 1.078536 0.179215
v 0.031954 1.152589 0.190095
v 0.183045 1.177291 -0.122981
v 0.194649 1.106789 -0.131168
v 0.126460 0.946479 0.175272
v 0.205926 1.020384 0.167202
v -0.060520 1.007615 0.197990
v -0.102326 1.122036 0.174698
v 0.001297 0.938617 0.174698
v 0.077578 0.809082 -0.132013
v -0.222079 0.898425 -0.131168
v -0.340767 0.990738 -0.131168
v -0.272192 1.204377 -0.131168
v 0.331799 1.106789 -0.061052
v 0.358175 1.032939 -0.061052
v 0.242327 0.921160 -0.125112
v 0.091477 0.884376 -0.130813
v 0.130261 1.083542 -0.171937
v 0.059622 1.078729 -0.235131
v -0.027231 1.090899 -0.180926
v 0.031387 1.152978 -0.195810
v 0.007726 0.967423 -0.165309
v 0.126460 0.946479 -0.180926
v 0.205926 1.020384 -0.172856
v -0.105746 0.962631 -0.154914
v -0.102326 1.122036 -0.173826
v -0.062999 1.011646 -0.208111
v 0.228972 0.820760 0.050548
v 0.234011 1.007588 0.050548
v 0.228972 0.820760 -0.050548
v 0.234011 1.007588 -0.050548
v 0.330068 0.736266 0.050548
v 0.325030 1.051587 0.050548
v 0.330068 0.736266 -0.050548
v 0.325030 1.051587 -0.050548
v -0.389825 -0.001582 -0.003369
v -0.449960 0.077543 -0.003369
v -0.614541 0.191484 -0.003369
v -0.646191 0.432025 -0.003369
v -0.424640 0.392566 -0.003369
v -0.329389 0.302787 0.031740
v -0.329389 0.302787 -0.038500
v -0.054701 0.073836 -0.057422
v -0.239468 0.073836 0.066596
v -0.463292 0.225903 0.099902
v -0.054701 0.073836 0.050685
v 0.032136 -0.001582 -0.003369
v -0.239468 0.073836 -0.073333
v -0.463292 0.225903 -0.106639
v 0.215883 0.344142 0.211594
v 0.370835 -0.004910 0.168100
v 0.336732 0.573642 0.242631
v 0.501213 0.002605 0.175123
v 0.214192 0.358820 0.061332
v 0.370835 0.008425 0.035096
v 0.343629 0.586270 0.076905
v 0.494354 0.004540 0.027881
v 0.402785 0.379906 0.218080
v 0.402804 0.387187 0.061596
v 0.139053 0.457091 0.142877
v 0.175396 0.571926 0.157538
v 0.138208 0.462806 0.083939
v 0.178845 0.576454 0.092498
v 0.215883 0.344142 -0.211594
v 0.370835 -0.004910 -0.168100
v 0.336732 0.573642 -0.242631
v 0.501213 0.002605 -0.175123
v 0.214192 0.358820 -0.061332
v 0.370835 0.008425 -0.035096
v 0.343629 0.586270 -0.076905
v 0.494354 0.004540 -0.027881
v 0.402785 0.379906 -0.218080
v 0.402804 0.387187 -0.061596
v 0.139053 0.457091 -0.142877
v 0.175396 0.571926 -0.157538
v 0.138208 0.462806 -0.083939
v 0.178845 0.576454 -0.092498
vn -0.9920 -0.1249 0.0206
vn -0.9722 0.2341 -0.0000
vn -0.2369 0.9715 -0.0000
vn 0.8140 0.1229 0.5677
vn 0.2982 -0.4129 0.8606
vn 0.3912 -0.0844 0.9164
vn 0.3074 -0.4143 -0.8567
vn 0.3922 -0.0902 -0.9155
vn 0.8140 0.1229 -0.5677
vn -0.9953 0.0843 0.0467
vn 0.5709 0.0240 0.8207
vn 0.3779 0.0419 -0.9249
vn 0.2217 -0.9751 -0.0000
vn 0.1226 0.8199 0.5592
vn 0.9174 0.2279 0.3261
vn -0.5212 0.6040 0.6029
vn -0.8042 -0.0413 0.5929
vn 0.8756 -0.3371 0.3460
vn -0.3840 -0.7162 0.5827
vn -0.0377 0.7737 -0.6324
vn 0.5960 0.2027 -0.7770
vn -0.6011 0.4717 -0.6451
vn 0.3700 -0.0140 -0.9289
vn -0.8023 -0.0780 -0.5918
vn 0.6331 -0.3230 -0.7035
vn -0.4219 -0.7004 -0.5757
vn 0.5675 0.0103 0.8233
vn 0.1226 0.8199 -0.5592
vn 0.9174 0.2279 -0.3261
vn -0.5212 0.6040 -0.6029
vn -0.8042 -0.0413 -0.5929
vn 0.8756 -0.3371 -0.3460
vn -0.3840 -0.7162 -0.5827
vn -0.0377 0.7737 0.6324
vn 0.5960 0.2027 0.7770
vn -0.6011 0.4717 0.6451
vn 0.3700 -0.0140 0.9289
vn -0.8023 -0.0780 0.5918
vn 0.6331 -0.3230 0.7035
vn -0.4219 -0.7004 0.5757
vn 0.5675 0.0103 -0.8233
vn 0.4162 0.7603 0.4987
vn 0.8064 -0.4040 0.4319
vn 0.1325 -0.7948 0.5923
vn -0.8534 -0.0992 0.5118
vn -0.5163 0.6582 0.5479
vn -0.8444 -0.0510 -0.5332
vn -0.0372 -0.0612 0.9974
vn -0.8092 -0.5875 0.0034
vn 0.8068 0.3596 0.4687
vn 0.1193 0.8147 -0.5675
vn 0.8024 -0.4168 -0.4272
vn 0.0819 -0.7671 -0.6363
vn -0.7432 0.3804 -0.5504
vn -0.0512 -0.0425 -0.9978
vn 0.8197 0.3413 -0.4601
vn 0.5463 0.6590 0.5169
vn 0.5310 0.6202 -0.5774
vn -0.0417 0.8485 0.5275
vn 0.0614 0.7465 0.6626
vn 0.0908 0.8761 0.4736
vn 0.7216 0.5235 0.4529
vn 0.0283 -0.8502 0.5257
vn -0.4218 -0.7220 0.5485
vn -0.8133 -0.2438 0.5283
vn -0.6847 0.4504 0.5729
vn 0.0492 0.7559 -0.6528
vn -0.0418 0.8484 -0.5278
vn 0.5584 0.4805 0.6762
vn 0.5825 0.7251 0.3672
vn 0.9121 -0.1652 0.3752
vn 0.5236 -0.6767 0.5176
vn 0.5736 -0.5205 0.6326
vn 0.7203 -0.4589 0.5202
vn 0.0945 0.8840 -0.4579
vn 0.4284 0.2290 0.8741
vn 0.0571 0.0466 0.9973
vn -0.0963 0.0127 0.9953
vn 0.0319 0.3674 0.9295
vn 0.7420 0.5125 -0.4322
vn 0.5772 0.4936 -0.6506
vn 0.1541 -0.3652 0.9181
vn 0.3572 0.0700 0.9314
vn 0.0499 -0.0516 0.9974
vn -0.1067 0.1839 0.9771
vn -0.0396 -0.3163 0.9478
vn 0.4561 -0.7050 -0.5430
vn -0.3846 -0.6965 -0.6058
vn -0.7885 -0.2372 -0.5675
vn -0.6840 0.4263 -0.5920
vn 0.5843 0.7285 -0.3576
vn 0.9165 -0.1638 -0.3649
vn 0.5237 -0.6990 -0.4869
vn 0.4676 -0.5805 -0.6666
vn 0.4425 0.2469 -0.8621
vn 0.0723 0.1025 -0.9921
vn -0.1547 0.0389 -0.9872
vn 0.0196 0.3880 -0.9215
vn -0.0718 -0.3558 -0.9318
vn 0.1171 -0.4210 -0.8995
vn 0.3731 0.0747 -0.9248
vn -0.1948 -0.2412 -0.9507
vn -0.2094 0.1134 -0.9712
vn -0.1186 -0.1927 -0.9741
vn -0.7145 -0.3224 0.6209
vn -0.6677 0.4315 0.6067
vn -0.7145 -0.3224 -0.6209
vn -0.6677 0.4315 -0.6067
vn 0.3600 -0.7544 0.5489
vn 0.4354 0.7065 0.5579
vn 0.3600 -0.7544 -0.5489
vn 0.4354 0.7065 -0.5579
vn -0.4108 -0.9117 -0.0000
vn -0.7425 -0.6698 -0.0000
vn -0.8800 -0.4750 -0.0000
vn -0.6832 0.7302 -0.0000
vn 0.3055 0.9522 -0.0000
vn 0.4359 0.5687 0.6976
vn 0.4358 0.5687 -0.6976
vn 0.0731 -0.5240 -0.8486
vn 0.0052 -0.4994 0.8664
vn -0.1504 -0.0116 0.9886
vn 0.0731 -0.5240 0.8486
vn 0.0689 -0.9976 -0.0000
vn 0.0052 -0.4994 -0.8664
vn -0.1504 -0.0116 -0.9886
vn -0.6416 -0.3039 0.7043
vn -0.4425 -0.7377 0.5099
vn 0.3222 0.6138 0.7207
vn 0.6736 -0.5149 0.5302
vn -0.6061 -0.2579 -0.7524
vn -0.4647 -0.6141 -0.6379
vn 0.4551 0.7033 -0.5461
vn 0.6137 -0.4827 -0.6248
vn 0.6894 0.1229 0.7139
vn 0.6810 0.2531 -0.6872
vn -0.9244 -0.1046 0.3668
vn -0.6121 0.6591 0.4369
vn -0.8121 -0.0502 -0.5814
vn -0.5038 0.6961 -0.5114
vn -0.6416 -0.3039 -0.7043
vn -0.4425 -0.7377 -0.5099
vn 0.3222 0.6138 -0.7207
vn 0.6736 -0.5149 -0.5302
vn -0.6061 -0.2579 0.7524
vn -0.4647 -0.6141 0.6379
vn 0.4551 0.7033 0.5461
vn 0.6137 -0.4827 0.6248
vn 0.6894 0.1229 -0.7139
vn 0.6810 0.2531 0.6872
vn -0.9244 -0.1046 -0.3668
vn -0.6121 0.6591 -0.4369
vn -0.8121 -0.0502 0.5814
vn -0.5038 0.6961 0.5114
vt 0.230204 0.934291
vt 0.148322 0.994029
vt 0.029341 0.640502
vt 0.155100 0.858137
vt 0.155100 0.609127
vt 0.155100 0.723553
vt 0.155100 0.474543
vt 0.029341 0.537293
vt 0.029341 0.858137
vt 0.029341 0.754928
vt 0.699822 0.051012
vt 0.461005 0.041056
vt 0.638149 0.120237
vt 0.702470 0.054794
vt 0.468923 0.259526
vt 0.591469 0.314200
vt 0.401052 0.131325
vt 0.729096 0.238787
vt 0.648330 0.114357
vt 0.433382 0.685339
vt 0.361040 0.665863
vt 0.481124 0.687701
vt 0.507553 0.056668
vt 0.700088 0.209085
vt 0.700721 0.209786
vt 0.329884 0.323254
vt 0.328882 0.634326
vt 0.334268 0.344737
vt 0.497790 0.298769
vt 0.623475 0.574593
vt 0.765827 0.461485
vt 0.346374 0.099264
vt 0.601119 0.571352
vt 0.497786 0.298756
vt 0.768857 0.457365
vt 0.495014 0.059935
vt 0.624990 0.572533
vt 0.285520 0.754672
vt 0.370359 0.688686
vt 0.425033 0.986723
vt 0.334538 0.907382
vt 0.496675 0.934091
vt 0.512655 0.818898
vt 0.571721 0.817568
vt 0.550669 0.871509
vt 0.790615 0.997923
vt 0.988698 0.989769
vt 0.790615 0.989769
vt 0.593554 0.682359
vt 0.705005 0.705129
vt 0.705560 0.705830
vt 0.790615 0.987653
vt 0.982453 0.919330
vt 0.988698 0.987653
vt 0.581730 0.630705
vt 0.594760 0.682270
vt 0.777993 0.858086
vt 0.690683 0.865062
vt 0.591883 0.635583
vt 0.551726 0.616290
vt 0.785128 0.784837
vt 0.766275 0.837626
vt 0.790615 0.866295
vt 0.796455 0.922265
vt 0.608765 0.818192
vt 0.619496 0.723035
vt 0.676299 0.775863
vt 0.668239 0.837626
vt 0.455959 0.848524
vt 0.485438 0.768163
vt 0.530029 0.717415
vt 0.658636 0.894096
vt 0.551349 0.952944
vt 0.509638 0.826267
vt 0.531386 0.738582
vt 0.550563 0.871730
vt 0.609654 0.815974
vt 0.457808 0.737214
vt 0.484071 0.769616
vt 0.661539 0.893201
vt 0.988698 0.997923
vt 0.988612 0.866295
vt 0.821308 0.491055
vt 0.828478 0.756916
vt 0.958000 0.819528
vt 0.965170 0.370817
vt 0.317570 0.262919
vt 0.225567 0.301003
vt 0.067201 0.355300
vt 0.197938 0.207963
vt 0.089824 0.183359
vt 0.207468 0.101914
vt 0.250453 0.045354
vt 0.197938 0.207963
vt 0.346977 0.094126
vt 0.521634 0.045628
vt 0.250289 0.045628
vt 0.346977 0.094126
vt 0.465793 0.094126
vt 0.465793 0.094126
vt 0.800390 0.020096
vt 0.893764 0.016630
vt 0.898949 0.026279
vt 0.860965 0.306990
vt 0.774610 0.460890
vt 0.860951 0.313315
vt 0.719663 0.285925
vt 0.718385 0.285633
vt 0.779824 0.457889
vt 0.624537 0.365554
vt 0.655256 0.451682
vt 0.652649 0.453182
vt 0.625176 0.365700
s 1
usemtl dragon_gold
f 9/1/9 3/2/3 4/1/4
f 10/3/10 8/4/8 12/5/12
f 11/6/11 5/7/5 12/6/12
f 6/4/6 10/3/10 11/5/11
f 5/7/5 1/8/1 13/7/13
f 8/4/8 3/2/3 9/1/9
f 6/4/6 3/2/3 2/9/2
f 8/4/8 4/1/4 6/4/6
f 11/6/11 1/8/1 5/7/5
f 7/7/7 1/8/1 12/6/12
f 1/8/1 10/10/10 12/6/12
f 10/3/10 2/9/2 8/4/8
f 5/7/5 7/7/7 12/6/12
f 12/5/12 8/4/8 6/4/6
f 6/4/6 11/5/11 12/5/12
f 6/4/6 2/9/2 10/3/10
f 8/4/8 2/9/2 3/2/3
f 6/4/6 4/1/4 3/2/3
f 8/4/8 9/1/9 4/1/4
f 11/6/11 10/10/10 1/8/1
f 7/7/7 5/7/5 13/7/13
f 1/8/1 7/7/7 13/8/13
f 18/11/18 19/12/19 26/12/26
f 27/13/27 18/11/18 25/14/25
f 16/15/16 14/16/14 20/16/20
f 17/17/17 16/15/16 22/15/22
f 19/12/19 17/17/17 24/17/24
f 15/18/15 27/13/27 23/19/23
f 14/16/14 15/18/15 21/18/21
f 23/19/23 20/16/20 21/18/21
f 18/11/18 27/13/27 19/12/19
f 16/15/16 27/13/27 14/16/14
f 17/17/17 27/13/27 16/15/16
f 19/12/19 27/13/27 17/17/17
f 14/16/14 27/13/27 15/18/15
f 18/11/18 26/12/26 25/14/25
f 27/13/27 25/14/25 23/19/23
f 16/15/16 20/16/20 22/15/22
f 17/17/17 22/15/22 24/17/24
f 19/12/19 24/17/24 26/12/26
f 15/18/15 23/19/23 21/18/21
f 14/16/14 21/18/21 20/16/20
f 20/16/20 23/19/23 22/15/22
f 22/15/22 26/12/26 24/17/24
f 23/19/23 26/12/26 22/15/22
f 26/12/26 23/19/23 25/14/25
f 32/11/32 40/12/40 33/12/33
f 41/13/41 39/14/39 32/11/32
f 30/15/30 34/16/34 28/16/28
f 31/17/31 36/15/36 30/15/30
f 33/12/33 38/17/38 31/17/31
f 29/18/29 37/19/37 41/13/41
f 28/16/28 35/18/35 29/18/29
f 37/19/37 35/18/35 34/16/34
f 32/11/32 33/12/33 41/13/41
f 30/15/30 28/16/28 41/13/41
f 31/17/31 30/15/30 41/13/41
f 33/12/33 31/17/31 41/13/41
f 28/16/28 29/18/29 41/13/41
f 32/11/32 39/14/39 40/12/40
f 41/13/41 37/19/37 39/14/39
f 30/15/30 36/15/36 34/16/34
f 31/17/31 38/17/38 36/15/36
f 33/12/33 40/12/40 38/17/38
f 29/18/29 35/18/35 37/19/37
f 28/16/28 34/16/34 35/18/35
f 34/16/34 36/15/36 37/19/37
f 36/15/36 38/17/38 40/12/40
f 37/19/37 36/15/36 40/12/40
f 40/12/40 39/14/39 37/19/37
f 51/20/51 46/21/46 42/22/42
f 44/23/44 52/24/52 43/25/43
f 45/26/45 54/27/54 47/28/47
f 48/29/48 57/30/57 42/22/42
f 42/22/42 46/21/46 48/29/48
f 48/29/48 43/25/43 50/31/50
f 43/25/43 48/29/48 44/23/44
f 48/29/48 49/32/49 44/23/44
f 48/29/48 45/26/45 49/32/49
f 51/20/51 47/28/47 54/27/54
f 58/33/58 55/34/55 51/20/51
f 55/34/55 56/35/56 52/24/52
f 52/24/52 53/36/53 55/34/55
f 55/34/55 53/36/53 49/32/49
f 55/34/55 49/32/49 47/28/47
f 46/21/46 51/20/51 54/27/54
f 50/31/50 58/37/58 57/30/57
f 44/23/44 53/36/53 52/24/52
f 45/26/45 46/21/46 54/27/54
f 45/26/45 48/29/48 46/21/46
f 51/20/51 55/34/55 47/28/47
f 49/32/49 45/26/45 47/28/47
f 53/36/53 44/23/44 49/32/49
f 42/22/42 57/30/57 58/37/58
f 42/22/42 58/33/58 51/20/51
f 48/29/48 50/31/50 57/30/57
f 58/33/58 56/35/56 55/34/55
f 50/31/50 56/35/56 58/37/58
f 65/38/65 88/39/88 64/39/64
f 59/40/59 90/41/90 66/41/66
f 60/42/60 68/40/68 59/40/59
f 66/41/66 89/38/89 65/38/65
f 78/43/78 77/44/77 79/45/79
f 61/46/61 67/47/67 60/48/60
f 73/49/73 93/50/93 72/51/72
f 61/52/61 80/53/80 75/54/75
f 73/49/73 87/55/87 94/56/94
f 70/57/70 81/58/81 69/58/69
f 87/55/87 74/59/74 63/60/63
f 71/61/71 91/62/91 70/62/70
f 72/51/72 92/61/92 71/61/71
f 69/63/69 80/53/80 62/64/62
f 79/45/79 77/44/77 76/65/76
f 78/43/78 82/66/82 77/44/77
f 76/65/76 77/44/77 82/66/82
f 72/51/72 71/61/71 83/67/83
f 71/61/71 70/62/70 83/67/83
f 70/62/70 69/68/69 83/67/83
f 76/65/76 83/67/83 69/68/69
f 83/67/83 82/66/82 72/51/72
f 83/67/83 76/65/76 82/66/82
f 85/69/85 84/70/84 78/43/78
f 78/43/78 84/70/84 86/71/86
f 76/65/76 62/72/62 79/45/79
f 85/69/85 78/43/78 79/45/79
f 79/45/79 61/73/61 60/42/60
f 60/42/60 59/40/59 85/69/85
f 59/40/59 66/41/66 85/69/85
f 66/41/66 65/38/65 84/70/84
f 65/38/65 64/39/64 84/70/84
f 84/70/84 85/69/85 66/41/66
f 79/45/79 62/72/62 61/73/61
f 85/69/85 79/45/79 60/42/60
f 73/49/73 82/66/82 86/71/86
f 72/51/72 82/66/82 73/49/73
f 73/49/73 86/71/86 74/59/74
f 74/59/74 86/71/86 84/70/84
f 86/71/86 82/66/82 78/43/78
f 84/70/84 63/60/63 74/59/74
f 84/70/84 64/39/64 63/60/63
f 97/74/97 96/44/96 99/75/99
f 97/74/97 98/76/98 96/44/96
f 98/76/98 95/77/95 96/44/96
f 99/75/99 96/44/96 100/66/100
f 95/77/95 100/66/100 96/44/96
f 93/50/93 101/67/101 92/61/92
f 92/61/92 101/67/101 91/62/91
f 91/62/91 101/67/101 81/68/81
f 95/77/95 81/68/81 101/67/101
f 101/67/101 93/50/93 100/66/100
f 101/67/101 100/66/100 95/77/95
f 99/75/99 102/78/102 104/79/104
f 102/78/102 103/69/103 104/79/104
f 103/69/103 97/74/97 104/79/104
f 99/75/99 104/79/104 97/74/97
f 95/77/95 98/76/98 80/80/80
f 103/69/103 98/76/98 97/74/97
f 98/76/98 67/42/67 75/73/75
f 67/42/67 103/69/103 68/40/68
f 68/40/68 103/69/103 90/41/90
f 90/41/90 102/78/102 89/38/89
f 89/38/89 102/78/102 88/39/88
f 102/78/102 90/41/90 103/69/103
f 98/76/98 75/73/75 80/80/80
f 103/69/103 67/42/67 98/76/98
f 94/56/94 99/75/99 100/66/100
f 93/50/93 94/56/94 100/66/100
f 94/56/94 87/55/87 99/75/99
f 87/55/87 102/78/102 99/75/99
f 102/78/102 87/55/87 88/39/88
f 88/39/88 63/60/63 64/39/64
f 65/38/65 89/38/89 88/39/88
f 59/40/59 68/40/68 90/41/90
f 60/42/60 67/42/67 68/40/68
f 66/41/66 90/41/90 89/38/89
f 61/46/61 75/81/75 67/47/67
f 73/49/73 94/56/94 93/50/93
f 61/52/61 62/64/62 80/53/80
f 73/49/73 74/59/74 87/55/87
f 70/57/70 91/57/91 81/58/81
f 71/61/71 92/61/92 91/62/91
f 72/51/72 93/50/93 92/61/92
f 62/72/62 76/65/76 69/68/69
f 69/63/69 81/82/81 80/53/80
f 81/68/81 95/77/95 80/80/80
f 88/39/88 87/55/87 63/60/63
f 105/83/105 106/84/106 108/84/108 107/83/107
f 107/83/107 108/84/108 112/85/112 111/86/111
f 111/86/111 112/85/112 110/85/110 109/86/109
f 109/86/109 110/85/110 106/84/106 105/83/105
f 107/83/107 111/86/111 109/86/109 105/83/105
f 112/85/112 108/84/108 106/84/106 110/85/110
f 118/87/118 119/87/119 117/88/117
f 116/89/116 122/90/122 117/88/117
f 115/91/115 122/90/122 116/89/116
f 114/92/114 122/90/122 115/91/115
f 118/87/118 117/88/117 122/90/122
f 121/32/121 118/87/118 122/90/122
f 113/93/113 121/32/121 122/90/122
f 116/89/116 117/88/117 126/94/126
f 115/91/115 116/89/116 126/94/126
f 114/92/114 126/94/126 113/93/113
f 119/87/119 126/94/126 117/88/117
f 125/32/125 126/94/126 119/87/119
f 113/93/113 126/94/126 125/32/125
f 125/95/125 124/96/124 113/97/113
f 121/98/121 124/96/124 123/99/123
f 114/92/114 113/93/113 122/90/122
f 114/92/114 115/91/115 126/94/126
f 50/31/50 43/25/43 52/24/52 56/35/56
f 125/95/125 120/100/120 124/96/124
f 121/98/121 113/97/113 124/96/124
f 128/101/128 134/102/134 130/103/130
f 136/104/136 129/105/129 135/106/135
f 127/107/127 132/101/132 128/101/128
f 130/103/130 127/107/127 128/101/128
f 135/106/135 127/107/127 130/103/130
f 134/102/134 132/101/132 131/108/131
f 131/108/131 136/104/136 134/102/134
f 128/101/128 132/101/132 134/102/134
f 127/107/127 131/108/131 132/101/132
f 134/102/134 136/104/136 130/103/130
f 130/103/130 136/104/136 135/106/135
f 136/104/136 133/109/133 129/105/129
f 135/106/135 129/105/129 127/107/127
f 131/108/131 133/109/133 136/104/136
f 133/109/133 131/108/131 139/110/139 140/111/140
f 138/112/138 140/111/140 139/110/139 137/113/137
f 131/108/131 127/107/127 137/113/137 139/110/139
f 127/107/127 129/105/129 138/112/138 137/113/137
f 129/105/129 133/109/133 140/111/140 138/112/138
f 142/101/142 144/103/144 148/102/148
f 150/104/150 149/106/149 143/105/143
f 141/107/141 142/101/142 146/101/146
f 144/103/144 142/101/142 141/107/141
f 149/106/149 144/103/144 141/107/141
f 148/102/148 145/108/145 146/101/146
f 145/108/145 148/102/148 150/104/150
f 142/101/142 148/102/148 146/101/146
f 141/107/141 146/101/146 145/108/145
f 148/102/148 144/103/144 150/104/150
f 144/103/144 149/106/149 150/104/150
f 150/104/150 143/105/143 147/109/147
f 149/106/149 141/107/141 143/105/143
f 145/108/145 150/104/150 147/109/147
f 147/109/147 154/111/154 153/110/153 145/108/145
f 152/112/152 151/113/151 153/110/153 154/111/154
f 145/108/145 153/110/153 151/113/151 141/107/141
f 141/107/141 151/113/151 152/112/152 143/105/143
f 143/105/143 152/112/152 154/111/154 147/109/147
