# Blender 4.2.3 LTS
# www.blender.org
mtllib skull.mtl
g skull
v 0.000000 1.903281 0.000000
v 0.274848 0.528397 0.395479
v 0.445163 0.177491 0.309919
v 0.231679 -0.003325 0.384977
v -0.000000 -0.003325 0.477756
v 0.846959 1.219637 -0.000000
v 0.706432 1.572853 -0.000000
v 0.421580 1.796937 -0.000000
v 0.835511 0.718298 0.309919
v -0.413984 0.406861 0.309919
v -0.426644 0.118211 0.309919
v -0.304475 -0.003325 0.384977
v -0.665518 1.219637 -0.000000
v -0.600251 1.572853 -0.000000
v -0.421580 1.796937 -0.000000
v -0.341189 0.575873 0.309919
v -0.731577 0.851202 0.000000
v 0.007913 0.552135 0.522694
v -0.031097 0.886818 0.410725
v 0.380105 0.738337 0.351060
v 0.176461 0.794515 0.351060
v 0.109750 1.082426 0.351060
v 0.334461 1.240425 0.351060
v 0.594283 1.117537 0.351060
v 0.611838 0.878781 0.351060
v 0.367816 0.975337 0.173856
v 0.611579 1.248801 0.381260
v 0.312959 1.406108 0.378935
v 0.337658 1.298460 0.388456
v 0.069249 1.176450 0.388456
v -0.024333 1.233639 0.379488
v 0.589620 1.184811 0.395888
v 0.231679 -0.003325 0.202167
v -0.000000 -0.003325 0.294947
v -0.304475 -0.003325 0.202167
v 0.356302 0.517940 0.202167
v -0.384437 0.542640 0.202167
v -0.829278 0.577772 0.000000
v -0.707741 0.346092 0.044745
v -0.512141 0.324589 0.140375
v -0.607904 0.529311 0.102880
v -0.031097 1.154965 0.389377
v -0.418879 0.751111 0.347320
v -0.190339 0.862814 0.347320
v -0.160720 1.109449 0.347320
v -0.374552 1.249703 0.347320
v -0.620518 1.219778 0.347320
v -0.662380 0.887503 0.347320
v -0.406945 0.981273 0.175229
v -0.608536 1.285155 0.387793
v -0.347845 1.352328 0.380040
v -0.374454 1.286907 0.390298
v -0.131443 1.173043 0.390297
v -0.143594 0.660168 0.410725
v -0.016207 0.613845 0.410725
v 0.126069 0.650242 0.410725
v -0.016207 0.702768 0.278104
v -0.480268 0.598487 0.346098
v -0.483763 0.486344 0.258654
v 0.341138 0.706491 0.493015
v 0.528916 0.687431 0.327498
v 0.032427 1.648252 0.329547
v -0.375141 1.610553 0.293418
v 0.494963 1.610553 0.293418
v 0.000000 1.755083 -0.629843
v 0.000000 1.079957 -0.967406
v 0.000000 0.483047 -0.613376
v 0.644170 0.595733 -0.272637
v 0.624410 1.231888 -0.563391
v 0.624410 1.664133 -0.388435
v -0.000000 0.483047 0.132375
v -0.556106 0.530409 -0.481645
v -0.556106 1.127319 -0.673753
v -0.556106 1.686494 -0.395882
v 0.661357 1.076244 0.324876
v -0.680053 1.233416 0.347320
v -0.710964 0.893840 0.347320
v -0.676061 1.052890 0.347320
v -0.724645 1.059227 0.347320
vn 0.9669 -0.2385 0.0909
vn 0.4721 -0.2144 0.8551
vn -0.0131 0.3339 0.9425
vn -0.0013 -0.6559 0.7548
vn 0.4172 -0.7358 0.5334
vn -0.9362 0.0415 0.3490
vn -0.4464 -0.1915 0.8741
vn -0.9812 -0.1753 0.0802
vn -0.4385 -0.6665 0.6029
vn -0.2450 -0.4707 0.8476
vn -0.0075 0.0182 0.9998
vn -0.0438 0.1829 0.9822
vn 0.3274 -0.1374 0.9349
vn 0.0212 -0.5314 0.8469
vn 0.1609 0.7404 0.6527
vn 0.2325 0.4173 0.8785
vn -0.0016 -0.1486 0.9889
vn -0.0126 0.1338 0.9909
vn 0.0610 -0.1344 0.9890
vn 0.4505 0.2357 0.8611
vn 0.0400 0.1910 0.9808
vn 0.1768 -0.2212 0.9591
vn -0.0196 -0.8721 -0.4890
vn 0.2393 -0.7185 -0.6531
vn 0.5843 -0.7972 -0.1517
vn -0.3224 -0.7140 -0.6215
vn -0.3911 -0.5302 0.7522
vn -0.5849 -0.7589 0.2864
vn -0.2937 -0.8716 0.3925
vn -0.6568 -0.1184 0.7448
vn -0.9701 -0.0279 0.2413
vn -0.9999 0.0144 -0.0038
vn -0.2436 -0.4576 0.8551
vn -0.0842 -0.6030 0.7933
vn 0.2396 -0.0320 0.9703
vn -0.0280 0.0607 0.9978
vn 0.0868 -0.3625 0.9279
vn -0.3568 -0.2273 0.9061
vn -0.1511 -0.6356 0.7571
vn -0.0275 0.1953 0.9804
vn -0.3664 0.2272 0.9023
vn 0.1700 0.0979 0.9806
vn -0.0670 -0.2817 0.9572
vn -0.0861 -0.2398 0.9670
vn 0.8860 -0.1647 0.4335
vn -0.3807 0.0881 0.9205
vn -0.0090 -0.0055 0.9999
vn -0.0240 -0.0122 0.9996
vn -0.0945 0.2561 0.9620
vn 0.0019 0.0606 0.9982
vn 0.0626 0.8589 0.5084
vn -0.1050 0.3482 0.9315
vn -0.6834 -0.2545 0.6842
vn 0.0361 0.2504 0.9675
vn 0.2516 0.2589 0.9325
vn 0.1504 0.1144 0.9820
vn 0.7678 -0.3309 0.5487
vn 0.8510 0.0757 0.5196
vn 0.9895 0.1442 -0.0055
vn 0.3075 -0.3702 0.8766
vn -0.2173 0.2460 -0.9446
vn -0.3247 0.5776 0.7489
vn -0.0104 0.5327 0.8463
vn 0.0045 0.9816 0.1907
vn -0.4741 0.8545 0.2122
vn -0.8803 0.4435 0.1687
vn 0.4102 0.5885 0.6967
vn 0.3589 0.9164 0.1771
vn 0.8131 0.5467 0.1999
vn -0.7438 0.1971 0.6387
vn 0.3783 0.0278 0.9253
vn 0.0826 -0.8051 -0.5874
vn 0.7156 0.0245 -0.6981
vn 0.6441 -0.6667 -0.3750
vn 0.0052 0.7493 -0.6622
vn 0.6454 0.6264 -0.4371
vn 0.1240 -0.7666 -0.6300
vn -0.7278 0.0409 -0.6846
vn -0.6962 0.6107 -0.3774
vn 0.0428 -0.0648 -0.9970
vn -0.5226 -0.6132 -0.5924
vn -0.9798 0.1690 -0.1066
vn -0.7436 0.0881 0.6628
vt 0.618110 0.180117
vt 0.537459 0.346284
vt 0.411056 0.357525
vt 0.407309 0.094495
vt 0.517018 0.094495
vt 0.211273 0.288732
vt 0.245744 0.368765
vt 0.205278 0.152047
vt 0.263130 0.094495
vt 0.746013 0.809167
vt 0.412201 0.599565
vt 0.771890 0.457242
vt 0.031811 0.757414
vt 0.363035 0.990305
vt 0.430315 0.250227
vt 0.130143 0.333033
vt 0.567202 0.710936
vt 0.395787 0.680241
vt 0.440101 0.653160
vt 0.696914 0.687421
vt 0.555506 0.761911
vt 0.565688 0.683455
vt 0.459280 0.608636
vt 0.686515 0.657120
vt 0.576030 0.341332
vt 0.225265 0.353029
vt 0.058401 0.259956
vt 0.171706 0.220389
vt 0.119445 0.346717
vt 0.000849 0.369665
vt 0.060882 0.499143
vt 0.179885 0.379474
vt 0.178230 0.326371
vt 0.017588 0.683772
vt 0.414266 0.578208
vt 0.099459 0.929765
vt 0.777201 0.767140
vt 0.462013 0.973874
vt 0.396674 0.238949
vt 0.733542 0.403599
vt 0.037754 0.439991
vt 0.229992 0.705465
vt 0.345066 0.651547
vt 0.720485 0.605709
vt 0.697036 0.512203
vt 0.808374 0.673611
vt 0.229946 0.687848
vt 0.331203 0.621433
vt 0.119146 0.704636
vt 0.113472 0.673678
vt 0.392584 0.642986
vt 0.392584 0.516009
vt 0.317177 0.504642
vt 0.490870 0.472300
vt 0.739378 0.464032
vt 0.557005 0.096605
vt 0.763516 0.165665
vt 0.763516 0.021510
vt 0.994163 0.080513
vt 0.467007 0.403982
vt 0.070642 0.519334
vt 0.208955 0.451747
vt 0.093649 0.516334
vt 0.688723 0.625262
vt 0.242592 0.736444
vt 0.399635 0.386747
vt 0.568850 0.430618
vt 0.657770 0.421592
vt 0.587302 0.445698
vt 0.802953 0.436209
vt 0.229667 0.858723
vt 0.422664 0.876575
vt 0.407309 0.997340
vt 0.207676 0.946982
vt 0.123069 0.840871
vt 0.641692 0.858723
vt 0.606942 0.946982
vt 0.741830 0.815033
vt 0.070335 0.840871
vt 0.741830 0.840871
vt 0.339312 0.408682
vt 0.085280 0.680135
vt 0.087171 0.594650
vt 0.772102 0.101975
vt 0.693479 0.178874
vt 0.691537 0.089044
vt 0.782686 0.246351
vt 0.690305 0.242610
vt 0.407309 0.927163
vt 0.742362 0.857027
vt 0.678382 0.874252
vt 0.892113 0.679412
vt 0.901470 0.378170
vt 0.892113 0.847184
vt 0.863212 0.535469
vt 0.872088 0.537867
vt 0.877987 0.541646
vt 0.714096 0.020613
vt 0.760245 0.020695
vt 0.407309 0.324809
vt 0.833772 0.161021
vt 0.861050 0.227889
vt 0.775006 0.164604
vt 0.143974 0.894684
vt 0.143974 0.347237
vt 0.908086 0.117393
vt 0.912706 0.165494
vt 0.912706 0.212287
vt 0.834650 0.090005
vt 0.825090 0.010102
vt 0.064164 0.597651
vt 0.002440 0.673611
vt -0.001498 0.499143
s 1
g skull
g skull
usemtl skull
f 3/1/1 2/2/2 18/3/3
f 18/3/3 5/4/4 4/5/5
f 4/5/5 3/1/1 18/3/3
f 5/4/4 18/3/3 10/6/6
f 18/3/3 16/7/7 10/6/6
f 10/6/6 11/8/8 12/9/9
f 12/9/9 5/4/4 10/6/6
f 29/17/17 31/18/18 30/19/19
f 29/17/17 27/20/20 28/21/21
f 23/22/14 30/19/19 22/23/13
f 23/22/14 32/24/22 29/17/17
f 12/9/9 34/4/23 5/4/4
f 4/5/5 34/4/23 33/5/24
f 33/5/24 36/25/25 3/1/1
f 2/2/2 3/1/1 36/25/25
f 3/1/1 4/5/5 33/5/24
f 35/9/26 11/8/8 10/6/6
f 10/6/6 16/7/7 37/26/27
f 37/26/27 35/9/26 10/6/6
f 11/8/8 35/9/26 12/9/9
f 39/27/28 40/28/29 41/29/30
f 38/30/31 39/27/28 41/29/30
f 17/31/32 38/30/31 41/29/30
f 37/26/27 16/7/7 58/32/33
f 37/26/27 40/28/29 35/9/26
f 59/33/34 40/28/29 37/26/27
f 31/18/18 52/42/43 53/43/44
s 0
f 75/44/45 25/45/45 6/46/45
s 1
f 53/43/44 46/47/39 45/48/38
f 46/47/39 50/49/46 47/50/37
f 45/48/38 42/51/47 53/43/44
f 42/51/47 45/48/38 19/52/48
f 19/52/48 45/48/38 44/53/41
f 22/23/13 42/51/47 19/52/48
f 19/52/48 21/54/16 22/23/13
f 22/23/13 30/19/19 42/51/47
f 31/18/18 53/43/44 42/51/47
f 30/19/19 31/18/18 42/51/47
f 56/60/52 18/3/3 2/2/2
f 17/31/32 58/32/33 77/61/53
f 58/32/33 43/62/40 48/63/42
f 58/32/33 16/7/7 43/62/40
f 29/17/17 28/21/21 31/18/18
f 29/17/17 32/24/22 27/20/20
f 23/22/14 29/17/17 30/19/19
f 23/22/14 24/64/10 32/24/22
f 12/9/9 35/9/26 34/4/23
f 4/5/5 5/4/4 34/4/23
f 58/32/33 17/31/32 41/29/30
f 41/29/30 59/33/34 58/32/33
f 59/33/34 37/26/27 58/32/33
f 59/33/34 41/29/30 40/28/29
f 31/18/18 51/65/54 52/42/43
f 52/42/43 51/65/54 50/49/46
f 53/43/44 52/42/43 46/47/39
f 46/47/39 52/42/43 50/49/46
f 56/60/52 55/66/51 18/3/3
f 60/67/55 21/54/16 56/60/52
f 56/60/52 2/2/2 60/67/55
f 60/67/55 61/68/56 20/69/15
f 60/67/55 2/2/2 61/68/56
f 61/68/56 2/2/2 9/70/57
f 9/70/57 25/45/12 61/68/56
f 25/45/12 20/69/15 61/68/56
s 0
f 75/44/58 6/46/58 27/20/58
s 1
f 9/70/57 6/46/59 25/45/12
f 27/20/20 32/24/22 75/44/60
s 0
f 24/64/61 27/20/61 75/44/61
s 1
f 63/71/62 62/72/63 1/73/64
f 1/73/64 15/74/65 63/71/62
f 15/74/65 14/75/66 63/71/62
f 64/76/67 8/77/68 62/72/63
f 7/78/69 8/77/68 64/76/67
f 8/77/68 1/73/64 62/72/63
f 51/65/54 63/71/62 50/49/46
f 51/65/54 31/18/18 63/71/62
f 63/71/62 31/18/18 62/72/63
f 63/71/62 14/79/66 50/49/46
f 64/76/67 28/21/21 27/20/20
f 27/20/20 6/46/59 7/80/69
f 64/76/67 62/72/63 28/21/21
f 62/72/63 31/18/18 28/21/21
f 27/20/20 7/80/69 64/76/67
f 43/62/40 16/7/7 54/81/49
f 16/7/7 18/3/3 54/81/49
f 18/3/3 55/66/51 54/81/49
f 54/81/49 19/52/48 44/53/41
f 44/53/41 43/62/40 54/81/49
f 19/52/48 56/60/52 21/54/16
f 32/24/22 24/64/10 75/44/60
f 76/82/70 78/83/35 47/50/37
s 0
f 75/44/71 24/64/71 25/45/71
s 1
f 67/84/72 69/85/73 68/86/74
f 69/85/73 65/87/75 70/88/76
f 65/89/75 1/73/64 8/77/68
f 8/77/68 7/78/69 70/90/76
f 70/91/76 65/89/75 8/77/68
f 69/92/73 6/46/59 68/93/74
f 70/94/76 6/46/59 69/92/73
f 6/46/59 9/70/57 68/93/74
f 6/46/59 70/94/76 7/80/69
f 36/95/25 68/96/74 9/97/57
f 9/70/57 2/2/2 36/25/25
f 36/98/25 67/84/72 68/86/74
f 67/84/72 36/98/25 71/99/77
f 71/100/77 33/5/24 34/4/23
f 65/87/75 73/101/78 74/102/79
f 67/84/72 73/101/78 66/103/80
f 15/74/65 65/89/75 74/104/79
f 14/75/66 15/74/65 74/104/79
f 72/105/81 38/30/31 17/31/32
f 17/106/32 13/107/82 73/101/78
f 13/107/82 14/108/66 74/102/79
f 73/101/78 13/107/82 74/102/79
f 73/101/78 72/109/81 17/106/32
f 40/110/29 72/109/81 71/99/77
f 71/100/77 34/4/23 35/9/26
f 40/28/29 39/27/28 72/105/81
f 39/27/28 38/30/31 72/105/81
f 71/100/77 35/9/26 40/28/29
f 72/109/81 67/84/72 71/99/77
f 77/61/53 78/83/35 79/111/83
f 47/50/37 50/49/46 76/82/70
f 76/82/70 50/49/46 14/79/66
f 13/112/82 76/82/70 14/79/66
f 17/113/32 77/61/53 79/111/83
f 76/82/70 13/112/82 79/111/83
f 13/112/82 17/113/32 79/111/83
f 58/32/33 48/63/42 77/61/53
f 60/67/55 20/69/15 21/54/16
f 76/82/70 79/111/83 78/83/35
f 67/84/72 66/103/80 69/85/73
f 69/85/73 66/103/80 65/87/75
f 71/100/77 36/25/25 33/5/24
f 65/87/75 66/103/80 73/101/78
f 67/84/72 72/109/81 73/101/78
f 15/74/65 1/73/64 65/89/75
f 77/61/53 48/63/42 78/83/35
g eyes
usemtl eyes
f 24/10/10 26/11/11 25/12/12
f 22/13/13 26/11/11 23/14/14
f 20/15/15 26/11/11 21/16/16
f 20/15/15 25/12/12 26/11/11
f 23/14/14 26/11/11 24/10/10
f 21/16/16 26/11/11 22/13/13
f 78/34/35 49/35/36 47/36/37
f 45/37/38 46/38/39 49/35/36
f 43/39/40 44/40/41 49/35/36
f 43/39/40 49/35/36 48/41/42
f 46/38/39 47/36/37 49/35/36
f 44/40/41 45/37/38 49/35/36
f 19/55/48 54/56/49 57/57/50
f 55/58/51 56/59/52 57/57/50
f 54/56/49 55/58/51 57/57/50
f 19/55/48 57/57/50 56/59/52
f 78/34/35 48/41/42 49/35/36
